<svg width="24" height="24" viewBox="0 0 24 24" fill="none" xmlns="http://www.w3.org/2000/svg">
<path d="M12 18.6666C13.4728 18.6666 14.6667 19.8605 14.6667 21.3333C14.6667 22.8061 13.4728 24 12 24C10.5272 24 9.33331 22.8061 9.33331 21.3333C9.33331 19.8605 10.5272 18.6666 12 18.6666Z" fill="#929292"/>
<path d="M12 9.33331C13.4728 9.33331 14.6667 10.5272 14.6667 12C14.6667 13.4728 13.4728 14.6667 12 14.6667C10.5272 14.6667 9.33331 13.4728 9.33331 12C9.33331 10.5272 10.5272 9.33331 12 9.33331Z" fill="#929292"/>
<path d="M12 -1.90735e-06C13.4728 -1.90735e-06 14.6667 1.19391 14.6667 2.66669C14.6667 4.13946 13.4728 5.33337 12 5.33337C10.5272 5.33337 9.33331 4.13946 9.33331 2.66669C9.33331 1.19391 10.5272 -1.90735e-06 12 -1.90735e-06Z" fill="#929292"/>
</svg>
